Coordinates
version=1
nRows=15
nColumns=34
inDegrees=yes

Units are S.I. units (second, meters, Newtons, ...)
If the header above contains a line with 'inDegrees', this indicates whether rotational values are in degrees (yes) or radians (no).

endheader
time	pelvis_tilt	pelvis_list	pelvis_rotation	pelvis_tx	pelvis_ty	pelvis_tz	hip_flexion_r	hip_adduction_r	hip_rotation_r	knee_angle_r	ankle_angle_r	subtalar_angle_r	mtp_angle_r	hip_flexion_l	hip_adduction_l	hip_rotation_l	knee_angle_l	ankle_angle_l	subtalar_angle_l	mtp_angle_l	lumbar_extension	lumbar_bending	lumbar_rotation	arm_flex_r	arm_add_r	arm_rot_r	elbow_flex_r	pro_sup_r	arm_flex_l	arm_add_l	arm_rot_l	elbow_flex_l	pro_sup_l
      3.23333330	      6.67384414	    -12.13320553	    -49.95107676	      1.60520316	      0.98966043	      3.94715835	     16.94378510	     19.37455177	      0.43314162	     26.05600543	      1.41901381	      3.36609422	      0.00000000	     16.22005675	      7.81925070	    -18.37132656	     23.12466050	      5.66123659	      3.37852819	      0.00000000	    -18.46490783	    -18.95558772	     20.38844254	     27.17213386	     36.27688645	     24.11419745	     28.95676677	    102.08989798	     10.91332956	     34.97509851	     25.14369419	     16.11911323	     80.50212764
      3.25000000	      7.14332095	    -11.59817369	    -50.64764907	      1.60337937	      0.98919960	      3.94737338	     17.57018383	     18.97495194	      1.63032385	     27.21054272	      1.66057506	      3.29981590	      0.00000000	     15.92923433	      9.04408713	    -17.27735600	     21.75857321	      4.56937030	      1.52133444	      0.00000000	    -18.35499194	    -19.86091612	     20.84446759	     27.80131670	     36.22629342	     23.79298400	     28.43993661	    102.38458487	     11.25068985	     34.98884051	     24.42447653	     16.04045828	     80.71345357
      3.26666670	      7.60822173	    -10.89045787	    -51.08508743	      1.60316571	      0.98904415	      3.94834436	     18.21625306	     18.37241075	      2.42816218	     28.29376499	      1.86298507	      3.04378365	      0.00000000	     15.61110647	     10.55346493	    -15.67883417	     20.15808819	      3.41078691	     -1.02570194	      0.00000000	    -17.93123209	    -20.82932685	     21.27040252	     27.94431313	     35.95368703	     23.99380242	     28.54904399	    102.83182350	     11.11054333	     34.68719285	     24.27119569	     16.14165891	     81.14174825
      3.28333330	      8.10593148	    -10.06697155	    -51.29258015	      1.60415435	      0.98848195	      3.94876729	     19.01108655	     17.50971453	      2.83881634	     29.52047054	      2.52327401	      3.08285110	      0.00000000	     15.47397315	     12.22886903	    -13.85211839	     18.76830481	      2.05987808	     -3.75649991	      0.00000000	    -17.50618427	    -21.64645867	     21.63103849	     28.09653167	     35.61689269	     24.06514296	     28.15056552	    103.27872339	     10.87961014	     34.51973159	     24.57491286	     15.96641296	     81.70456044
      3.30000000	      8.25629777	     -9.85724084	    -51.21502092	      1.60550158	      0.98816164	      3.94880918	     19.28868003	     17.24502972	      2.89321364	     30.06481621	      2.80545409	      2.80562802	      0.00000000	     15.38259294	     12.79834083	    -13.34807174	     18.44017198	      2.15759103	     -3.82797423	      0.00000000	    -17.45830439	    -21.53973562	     22.04913676	     28.23589881	     34.98243576	     24.07351546	     27.87179895	    103.34870515	     10.62005620	     34.60301796	     24.63914608	     15.85817750	     81.78487960
      3.31666670	      8.75352104	     -8.66226466	    -51.42935507	      1.60537104	      0.98688420	      3.94840884	     20.54978160	     16.23338421	      3.52452829	     31.36724252	      3.29627435	      2.57769241	      0.00000000	     15.58245249	     14.41129597	    -12.41742857	     16.98598127	      0.56086227	     -5.27309380	      0.00000000	    -16.98443005	    -22.68464003	     22.07079600	     28.45308423	     34.53296930	     24.57122611	     27.62574004	    103.83999254	     10.82235351	     34.44312665	     25.30058099	     15.82566268	     82.31457876
      3.33333330	      9.04809763	     -7.87988895	    -51.33765146	      1.60667907	      0.98579893	      3.94793495	     21.55631859	     15.38281120	      3.43492228	     32.53661712	      3.88927846	      2.74827397	      0.00000000	     15.51027128	     15.69471759	    -10.87504822	     15.72470535	     -0.44512469	     -6.86821916	      0.00000000	    -16.62900752	    -23.04555890	     22.35268101	     28.55556719	     33.76962593	     24.94556305	     27.36294878	    104.61325941	     10.77958345	     34.38437602	     26.29243987	     15.74172914	     83.09584743
      3.35000000	      9.15081998	     -7.69032858	    -50.94452820	      1.60780576	      0.98546942	      3.94761885	     22.02630304	     15.14229944	      3.66292245	     33.24316415	      3.93939684	      2.42468588	      0.00000000	     15.32157798	     16.09730944	    -10.49885934	     15.31314443	     -0.58673610	     -6.50144925	      0.00000000	    -16.79489385	    -22.80071749	     22.56024845	     28.65523977	     33.05856538	     24.91469878	     27.10908415	    104.66701595	     10.80556117	     34.48858649	     26.39192813	     15.77388530	     83.15729720
      3.36666670	      9.35128958	     -6.71117333	    -50.76642497	      1.60856055	      0.98450350	      3.94787177	     23.24221643	     14.45251432	      4.26292293	     34.33746119	      3.77435788	      1.50449864	      0.00000000	     15.46193096	     17.19607816	     -9.64717712	     14.16722040	     -1.75108868	     -7.50669049	      0.00000000	    -16.27547848	    -23.40730007	     22.63843139	     28.83951891	     32.53398013	     25.89105902	     26.51977386	    105.47611613	     11.07025809	     34.17148610	     27.91002065	     15.57728907	     83.88430018
      3.38333330	      9.29603865	     -6.50618340	    -50.54457379	      1.60899809	      0.98439248	      3.94769840	     23.69361532	     14.31122156	      4.32718622	     34.73121999	      3.51493031	      1.29417902	      0.00000000	     15.33696596	     17.41159353	     -9.40658992	     13.62330560	     -1.93653873	     -7.30539936	      0.00000000	    -16.36597458	    -23.20573121	     22.72662256	     28.75663397	     31.98013960	     25.93290544	     26.12468994	    105.55843667	     11.38536241	     34.22961709	     28.05023077	     15.56944614	     83.95140334
      3.40000000	      9.16428304	     -5.78602436	    -50.51659055	      1.60875496	      0.98361241	      3.94817413	     24.63571378	     14.02318079	      4.78798748	     35.13563666	      3.13208655	      1.03146908	      0.00000000	     15.73275675	     17.92142270	     -8.70179059	     12.96029534	     -2.75171688	     -8.34604316	      0.00000000	    -15.88462047	    -23.45006936	     23.09255634	     29.03610808	     31.51807809	     26.83363544	     25.15784892	    106.18642125	     11.85055801	     34.09284858	     29.27001386	     15.36321533	     84.40896376
      3.41666670	      8.97207375	     -5.66333471	    -50.41274985	      1.60891408	      0.98368772	      3.94938372	     24.90022734	     14.04892492	      5.15538928	     35.16514096	      2.74268667	      1.66755564	      0.00000000	     15.73072051	     17.91062402	     -8.25439649	     12.72603555	     -2.65257045	     -8.66307736	      0.00000000	    -15.66978593	    -23.21049962	     23.74688139	     29.00409618	     30.96222258	     26.88783326	     24.68287735	    106.33581230	     12.03201917	     33.93622671	     29.53974408	     15.39033035	     84.50895417
      3.43333330	      8.83739011	     -5.02345808	    -50.24518942	      1.60909150	      0.98272539	      3.95086864	     25.75430726	     13.71736426	      5.73517942	     35.65031823	      2.70152579	      2.10082881	      0.00000000	     16.17856492	     18.36879009	     -7.28095930	     12.47671323	     -3.39074215	    -10.14911571	      0.00000000	    -15.03937037	    -23.46346134	     24.43686991	     29.11014917	     30.47403082	     27.17837858	     23.92440512	    106.86046610	     12.11302078	     33.60346336	     30.96938072	     15.24428664	     84.94613420
      3.45000000	      8.74137423	     -4.88752528	    -49.86669581	      1.60937756	      0.98272553	      3.95231407	     25.81611745	     13.44127155	      6.17768050	     35.43851531	      2.92499490	      2.38303813	      0.00000000	     16.16423510	     18.45237683	     -6.77767103	     12.43729126	     -3.22745844	    -10.23524667	      0.00000000	    -14.93301486	    -23.41053036	     25.07244748	     29.08041506	     29.91279940	     27.11441606	     23.61524636	    106.90065150	     12.00309918	     33.46188451	     31.06274097	     15.20664534	     84.96020268
      3.46666670	      8.62311220	     -4.50761219	    -49.75605775	      1.60981332	      0.98233641	      3.95395784	     26.15248402	     12.99981623	      6.43592422	     35.47202855	      4.45960193	      4.24216534	      0.00000000	     16.25213596	     18.76890569	     -5.74887657	     12.00108602	     -4.00958683	    -11.89900663	      0.00000000	    -14.44196320	    -23.57649976	     25.79643648	     29.03347576	     29.48031792	     27.15205978	     23.21293279	    107.26752113	     11.96081317	     33.15439615	     32.39496206	     15.15448978	     85.22716798
